<?xml version="1.0" encoding="utf-8"?>
<!-- Generator: Adobe Illustrator 25.4.1, SVG Export Plug-In . SVG Version: 6.00 Build 0)  -->
<svg version="1.0" id="katman_1" xmlns="http://www.w3.org/2000/svg" xmlns:xlink="http://www.w3.org/1999/xlink" x="0px" y="0px"
	 viewBox="0 0 1280 1024" style="enable-background:new 0 0 1280 1024;" xml:space="preserve">
<style type="text/css">
	.st0{fill-rule:evenodd;clip-rule:evenodd;fill:#1D1D1B;}
	.st1{fill:#1D1D1B;}
</style>
<path id="logo" class="st0" d="M257.7,341.9c6.5,0,10.8,6.6,8.3,12.5l-87.1,206.8c-2.2,5.2-7.3,8.6-12.9,8.6h-45.7
	c-6.5,0-10.8-6.6-8.3-12.5l87.1-206.8c2.2-5.2,7.3-8.6,12.9-8.6H257.7z M306.5,454.6c6.5,0,10.8,6.6,8.3,12.5l-87.1,206.8
	c-2.2,5.2-7.3,8.6-12.9,8.6h-45.7c-6.5,0-10.8-6.6-8.3-12.5l87.1-206.8c2.2-5.2,7.3-8.6,12.9-8.6H306.5z"/>
<g id="name">
	<path class="st1" d="M490.5,566.3l39.7-109.9h-25.8l-25,74.5l-25.6-74.5h-18.9l-25.6,74.5l-25-74.5h-26.5l39.7,109.9h20.7
		l25.9-74.3l25.6,74.3H490.5z"/>
	<path class="st1" d="M570.6,566.3V456.3h-25.8v109.9H570.6z M573.5,424.3c0-8.7-6.9-16.2-16-16.2c-8.7,0-15.8,7.2-15.8,16.2
		c0,8.7,7.1,15.9,15.8,15.9C566.5,440.2,573.5,432.8,573.5,424.3z"/>
	<path class="st1" d="M623.2,508.4c0-18.8,10.3-30.7,25.6-30.7c15.6,0,24.3,10.3,24.3,27.4v61.2H699v-66.2
		c0-28.5-15.8-46.4-42.3-46.4c-15.4,0-26.7,7-33.4,17.3v-14.6h-25.8v109.9h25.8V508.4z"/>
	<path class="st1" d="M807.6,456.3v15c-8-11.4-21.8-17.7-37-17.7c-30.1,0-53.3,25.1-53.3,57.7c0,32.5,23.2,57.7,53.3,57.7
		c15.2,0,29-7.2,37-18.6v15.9H833V456.3H807.6z M743.2,511.3c0-19.1,14.3-34.1,32.8-34.1c18.5,0,32.8,15,32.8,34.1
		s-14.3,34.1-32.8,34.1C757.4,545.4,743.2,530.4,743.2,511.3z"/>
	<path class="st1" d="M885.9,507.9c0-18.6,9.4-30.5,23.4-30.5c13.6,0,20.9,10.3,20.9,27.1v61.7h25.9v-59.4
		c0.2-17.9,9.6-29.4,23.4-29.4c13.6,0,20.9,10.1,20.9,26.2v62.6h25.9v-67.5c0-27.4-14.5-45.1-39.7-45.1c-18.3,0-30.1,9.9-36.3,20.4
		c-6-12.8-17.6-20.4-33.2-20.4c-14.7,0-25.4,6.7-31.2,17.3v-14.6H860v109.9h25.8V507.9z"/>
	<path class="st1" d="M1051.8,456.3v156.6h25.6v-61.7c8,11.2,21.8,17.7,37,17.7c30.1,0,53.3-25.3,53.3-57.7
		c0-32.8-23.2-57.7-53.3-57.7c-15.2,0-29,7.2-37,18.4v-15.7H1051.8z M1141.8,511.3c0,19.1-14.3,34.1-32.8,34.1s-32.8-15-32.8-34.1
		s14.3-34.1,32.8-34.1S1141.8,492.2,1141.8,511.3z"/>
	<path class="st0" d="M491.7,568h-23.4l-24.4-70.7L419.3,568h-23.2l-40.9-113.4h30.3l23.7,70.8l24.4-70.8H455l24.4,70.8l23.7-70.8
		h29.6L491.7,568z M504.3,456.3h25.9l-39.7,109.9h-20.9L443.9,492l-25.9,74.3h-20.7l-39.7-109.9h26.5l25,74.5l25.6-74.5h18.9
		l25.6,74.5L504.3,456.3z M572.3,568H543V454.6h29.3V568z M570.6,456.3v109.9h-25.9V456.3H570.6z M557.4,406.4
		c10.1,0,17.8,8.2,17.8,17.9c0,9.5-7.7,17.7-17.8,17.7c-9.6,0-17.6-8-17.6-17.7C539.8,414.3,547.7,406.4,557.4,406.4z M671.4,568
		v-63c0-8.2-2.1-14.6-5.9-18.9c-3.7-4.3-9.3-6.7-16.7-6.7c-7.2,0-13.1,2.8-17.3,7.7c-4.2,4.9-6.6,12.2-6.6,21.3V568h-29.3V454.6H625
		v11.1c7.2-8.4,17.9-13.8,31.7-13.8c13.7,0,24.8,4.6,32.4,13.1c7.6,8.4,11.7,20.5,11.7,35.1V568H671.4z M625,468.5
		c-0.6,0.8-1.2,1.6-1.7,2.5v-14.6h-25.9v109.9h25.9v-57.9c0-18.8,10.3-30.7,25.6-30.7c15.6,0,24.3,10.3,24.3,27.4v61.2H699v-66.2
		c0-28.5-15.8-46.4-42.3-46.4C642.5,453.7,631.8,459.5,625,468.5z M805.8,454.6h28.9V568h-28.9v-12.7c-8.6,9.6-21.4,15.4-35.3,15.4
		c-31.2,0-55-26-55-59.4c0-33.4,23.8-59.4,55-59.4c13.8,0,26.6,5.1,35.3,14.5V454.6z M807.6,471.4c-0.6-0.8-1.1-1.6-1.7-2.3
		c-8.2-10-21.1-15.4-35.3-15.4c-30.1,0-53.3,25.1-53.3,57.7c0,32.5,23.2,57.7,53.3,57.7c14.1,0,27.1-6.2,35.3-16.3
		c0.6-0.7,1.2-1.5,1.7-2.3v15.9H833V456.3h-25.4V471.4z M775.9,479c-17.5,0-31,14.2-31,32.3s13.5,32.3,31,32.3
		c17.5,0,31-14.2,31-32.3S793.4,479,775.9,479z M928.5,568v-63.4c0-8.2-1.8-14.5-5-18.8c-3.2-4.2-7.9-6.6-14.2-6.6
		c-6.5,0-11.8,2.7-15.6,7.6c-3.8,4.9-6.1,12.1-6.1,21.2V568h-29.3V454.6h29.3v10.6c6.5-8.2,16.6-13.2,29.5-13.2
		c15.1,0,26.7,6.9,33.4,18.7c6.8-9.9,18.7-18.7,36.2-18.7c13,0,23.4,4.6,30.6,12.9c7.1,8.3,10.8,20,10.8,34V568h-29.3v-64.3
		c0-7.8-1.8-14-5-18.1c-3.2-4.1-7.9-6.4-14.2-6.4c-6.4,0-11.7,2.6-15.4,7.3c-3.8,4.7-6.1,11.7-6.2,20.3V568H928.5z M951.4,472.3
		c-0.4,0.6-0.7,1.2-1.1,1.7c-0.3-0.6-0.6-1.2-0.9-1.8c-6.2-11.7-17.4-18.6-32.3-18.6c-13.3,0-23.4,5.5-29.5,14.4
		c-0.6,0.9-1.2,1.9-1.7,2.8v-14.6H860v109.9h25.8v-58.3c0-18.6,9.4-30.5,23.4-30.5c13.6,0,20.9,10.3,20.9,27.1v61.7h25.8v-59.4
		c0.2-17.9,9.6-29.4,23.4-29.4c13.6,0,20.9,10.1,20.9,26.2v62.6h25.8v-67.5c0-27.4-14.5-45.1-39.7-45.1
		C969.4,453.7,957.9,462.5,951.4,472.3z M1050,454.6h29.1v12.5c8.6-9.4,21.4-15.2,35.3-15.2c31.2,0,55,25.8,55,59.4
		c0,33.1-23.8,59.4-55,59.4c-13.8,0-26.7-5.2-35.3-14.6v58.5H1050V454.6z M1077.4,551.2c0.6,0.8,1.1,1.5,1.7,2.3
		c8.2,9.8,21.1,15.5,35.3,15.5c30.1,0,53.3-25.3,53.3-57.7c0-32.8-23.2-57.7-53.3-57.7c-14.1,0-27.1,6.2-35.3,16.1
		c-0.6,0.7-1.2,1.5-1.7,2.3v-15.7h-25.6v156.6h25.6V551.2z M1109.1,543.6c17.5,0,31-14.2,31-32.3s-13.5-32.3-31-32.3
		s-31,14.2-31,32.3S1091.6,543.6,1109.1,543.6z M557.4,408.1c9.1,0,16,7.4,16,16.2c0,8.5-6.9,15.9-16,15.9
		c-8.7,0-15.8-7.2-15.8-15.9C541.6,415.3,548.7,408.1,557.4,408.1z M775.9,477.2c-18.5,0-32.8,15-32.8,34.1s14.3,34.1,32.8,34.1
		c18.5,0,32.8-15,32.8-34.1S794.4,477.2,775.9,477.2z M1109.1,545.4c18.5,0,32.8-15,32.8-34.1s-14.3-34.1-32.8-34.1
		c-18.5,0-32.8,15-32.8,34.1S1090.6,545.4,1109.1,545.4z"/>
</g>
</svg>
